<svg xmlns="http://www.w3.org/2000/svg" viewBox="0 0 104.48063 84.054275" x="0px" y="0px"><defs><style>.cls-1{fill-rule:evenodd;}</style></defs><title>game_3</title><g data-name="Camada 2"><g data-name="Your Icon"><path class="cls-1" d="M37.84779,23.491a7.71517,7.71517,0,1,1-7.72022-7.68A7.70342,7.70342,0,0,1,37.84779,23.491Z"/><path class="cls-1" d="M80.15194,30.721a4.06006,4.06006,0,1,1-4.06983-4.06A4.067,4.067,0,0,1,80.15194,30.721Z"/><path class="cls-1" d="M87.1119,23.491a4.06495,4.06495,0,1,1-4.06983-4.06A4.06488,4.06488,0,0,1,87.1119,23.491Z"/><path class="cls-1" d="M80.24178,16.361a4.05982,4.05982,0,1,1-8.11963,0v-.1a4.06049,4.06049,0,0,1,8.11963.1Z"/><circle cx="69.13192" cy="23.49098" r="4.06003"/><path d="M101.17879,32.25056c-.8667-3.13373-2.15137-6.18841-3.28515-9.23126q-1.58864-4.26517-3.21045-8.51819C93.547,11.514,92.53865,8.44044,90.04012,6.27357,89.085,5.4449,77.53133.346,75.17879.05043,72.42244-.27989,70.295,1.05665,68.2491,2.77028A99.37714,99.37714,0,0,0,52.23885,1.56044V1.561A99.36079,99.36079,0,0,0,36.232,2.77083C34.18563,1.05714,32.05867-.27941,29.30184.051,26.9493.34651,15.39608,5.44545,14.44051,6.27412c-2.498,2.16681-3.50684,5.24042-4.64307,8.22754Q8.18026,18.75593,6.587,23.01979c-1.13378,3.04291-2.418,6.09753-3.28515,9.23132-1.77295,6.4082-3.4458,13.17767-3.292,19.869a19.10209,19.10209,0,0,0,2.39892,9.34918,11.56247,11.56247,0,0,0,7.61914,5.61334,11.365,11.365,0,0,0,9.36768-2.68237c1.45849-1.3269,13.50976-12.28015,15.103-13.6543.17627-.15222.7041-.7749.96337-.7749H52.57186v-.00055H69.01864c.25927,0,.7871.62274.96386.7749,1.59278,1.37421,13.644,12.32746,15.10254,13.65436A11.3654,11.3654,0,0,0,94.45272,67.082a11.56421,11.56421,0,0,0,7.61963-5.61328,19.10735,19.10735,0,0,0,2.39843-9.34924C104.62459,45.4283,102.95223,38.65877,101.17879,32.25056ZM99.59334,57.37105a9.16687,9.16687,0,0,1-4,5.01507A6.9497,6.9497,0,0,1,88.752,62.241c-1.33105-.779-16.30322-14.5506-17.603-15.7406l-.57032-.53H51.90877V45.971H33.90194l-.57032.53c-1.2998,1.19-16.27148,14.96161-17.603,15.7406a6.94967,6.94967,0,0,1-6.84131.14508,9.16706,9.16706,0,0,1-4-5.01508,18.73432,18.73432,0,0,1-.92383-6.31109A43.19183,43.19183,0,0,1,4.692,43.971c.50976-2.92,1.67968-7.81,2.46972-10.66.37012-1.33.89014-2.83,1.33008-4.04,1.49756-3.95221,6.18066-17.87811,8.1875-19.61578a13.37733,13.37733,0,0,1,3.04541-1.84308,65.84645,65.84645,0,0,1,6.94971-2.8487c1.96533-.67737,3.69336-1.53869,5.50732-.19244.24024.17,2.8501,2.27,2.8501,2.27l.97021-.17a92.54333,92.54333,0,0,1,16.23975-1.31V5.56044a92.5305,92.5305,0,0,1,16.23682,1.31l.97021.17s2.60986-2.1,2.8501-2.27c1.814-1.34625,3.54248-.48492,5.50732.19244a65.85922,65.85922,0,0,1,6.94971,2.8487,13.37755,13.37755,0,0,1,3.04541,1.84314c2.00684,1.73761,6.68994,15.66351,8.1875,19.61572.43994,1.21.96,2.71,1.33008,4.04.79,2.85,1.96,7.74,2.46972,10.66a43.13851,43.13851,0,0,1,.72852,7.08954A18.70952,18.70952,0,0,1,99.59334,57.37105Z"/></g></g><text x="0" y="82.24342" fill="#000000" font-size="5px" font-weight="bold" font-family="'Helvetica Neue', Helvetica, Arial-Unicode, Arial, Sans-serif">Created by Luiz Carvalho</text><text x="0" y="87.24342" fill="#000000" font-size="5px" font-weight="bold" font-family="'Helvetica Neue', Helvetica, Arial-Unicode, Arial, Sans-serif">from the Noun Project</text></svg>